<svg xmlns="http://www.w3.org/2000/svg" xmlns:xlink="http://www.w3.org/1999/xlink" xmlns:svgjs="http://svgjs.dev/svgjs" version="1.1" width="128" height="128" viewBox="0 0 128 128"><g transform="matrix(0.8046875,0,0,0.8046875,12.211347173012157,6.756153330592099)"><svg xmlns="http://www.w3.org/2000/svg" xmlns:xlink="http://www.w3.org/1999/xlink" viewBox="0 0 85 95" data-background-color="#4d94f6" preserveAspectRatio="xMidYMid meet" height="143" width="128"><defs fill="#4d94f6"/><g id="tight-bounds" transform="matrix(1,0,0,1,0.2382086436307418,-0.24049999999999727)"><svg viewBox="0 0 84.52358271273852 95.481" height="95.481" width="84.52358271273852"><g><svg viewBox="0 0 84.52358271273852 95.481" height="95.481" width="84.52358271273852"><g><svg viewBox="0 0 84.52358271273852 95.481" height="95.481" width="84.52358271273852"><g><svg viewBox="0 0 84.52358271273852 95.481" height="95.481" width="84.52358271273852"><g><svg viewBox="0 0 84.52358271273852 95.481" height="95.481" width="84.52358271273852"><g><svg viewBox="0 0 84.52358271273852 95.481" height="95.481" width="84.52358271273852"><g><svg xmlns="http://www.w3.org/2000/svg" xmlns:xlink="http://www.w3.org/1999/xlink" version="1.1" x="0" y="0" viewBox="6.891 1.1219999999999999 85.824 96.95" enable-background="new 0 0 100 100" xml:space="preserve" height="95.481" width="84.52358271273852" class="icon-icon-0" data-fill-palette-color="accent" id="icon-0"><g fill="#4d94f6" data-fill-palette-color="accent"><path fill="#4d94f6" d="M64.008 72.381c4.002-3.149 12.23-11.582 15.089-21.179-6.511-8.01-33.912-42.187-40.238-50.08C38.212 8.613 31.63 24.377 20.21 29.646c-5.247 2.56-10.477 4.156-12.467 4.721l39.077 47.32C51.235 80.263 59.958 75.56 64.008 72.381z" data-fill-palette-color="accent"/><g fill="#4d94f6" data-fill-palette-color="accent"><g fill="#4d94f6" data-fill-palette-color="accent"><path fill="#4d94f6" d="M90.405 75.352c-6.5 3.781-13.381 7.281-20.674 9.929-8.632 3.134-19.05 6.681-22.386 7.664v5.127l43.046-15.479L90.405 75.352z" data-fill-palette-color="accent"/><polygon fill="#4d94f6" points="6.891,35.865 6.891,50.088 45.703,97.945 45.736,82.902    " data-fill-palette-color="accent"/></g><path fill="#4d94f6" d="M88.717 70.42c-5.018 3.936-11.386 7.921-18.278 11.363-6.521 3.266-20.879 7.668-23.093 8.339v1.144c3.686-1.09 13.036-3.898 21.237-7.013 9.104-3.457 22.12-11.628 22.12-11.628L88.717 70.42z" data-fill-palette-color="accent"/></g><path fill="#4d94f6" d="M80.877 50.835l-0.114 0.403c-2.851 10.142-11.25 18.858-15.762 22.409-4.225 3.319-13.009 8.054-17.655 9.561v2.168c6.53-2.034 15.656-6.36 20.721-9.922 8.699-6.128 17.195-14.63 22.419-22.404l0.047 0.036C84.648 46.442 51.938 9.001 49.818 6.309c-0.719 1.357-1.368 2.265-2.422 2.887 10.832 13.508 28.598 35.647 33.217 41.314L80.877 50.835z" data-fill-palette-color="accent"/><path fill="#4d94f6" d="M87.321 59.925c0 0-11.588 12.1-18.328 16.846-5.696 4.008-14.5 7.942-21.647 10.168v1.498c0.692-0.212 1.838-0.566 3.268-1.021 5.266-1.677 14.41-4.722 19.106-7.072 9.305-4.648 17.623-10.274 22.834-15.386 0.054-0.053 0.106-0.106 0.161-0.16L87.321 59.925z" data-fill-palette-color="accent"/></g></svg></g></svg></g></svg></g></svg></g></svg></g><g/></svg></g></svg><rect width="84.52358271273852" height="95.481" fill="none" stroke="none" visibility="hidden"/></g></svg></g></svg>