<svg xmlns="http://www.w3.org/2000/svg" version="1.1" xmlns:xlink="http://www.w3.org/1999/xlink" xmlns:svgjs="http://svgjs.dev/svgjs" width="1000" height="338" viewBox="0 0 1000 338"><g transform="matrix(1,0,0,1,-0.606049774295343,-0.05080945450592367)"><svg viewBox="0 0 396 134" data-background-color="#4b91f1" preserveAspectRatio="xMidYMid meet" height="338" width="1000" xmlns="http://www.w3.org/2000/svg" xmlns:xlink="http://www.w3.org/1999/xlink"><defs></defs><g id="tight-bounds" transform="matrix(1,0,0,1,0.2399958714726722,0.02014339320649583)"><svg viewBox="0 0 395.52 133.959713213587" height="133.959713213587" width="395.52"><g><svg viewBox="0 0 395.52 133.959713213587" height="133.959713213587" width="395.52"><g transform="matrix(1,0,0,1,0,82.79247696315463)"><svg viewBox="0 0 395.52 51.167236250432374" height="51.167236250432374" width="395.52"><g><svg viewBox="0 0 395.52 51.167236250432374" height="51.167236250432374" width="395.52"><g><svg viewBox="0 0 395.52 51.167236250432374" height="51.167236250432374" width="395.52"><g transform="matrix(1,0,0,1,0,0)"><svg width="395.52" viewBox="4.130000114440918 -36.040000915527344 281.3999938964844 36.53000259399414" height="51.167236250432374" data-palette-color="#ffffff"><g class="undefined-text-0" data-fill-palette-color="primary" id="text-0"><path d="M31.45-35.55L31.45 0 26.73 0 26.73-16.43 8.81-16.43 8.81 0 4.13 0 4.13-35.55 8.81-35.55 8.81-20.26 26.73-20.26 26.73-35.55 31.45-35.55ZM62.79 0L59.4-9.28 44.5-9.28 41.16 0 36.33 0 49.9-35.55 54-35.55 67.6 0 62.79 0ZM51.95-29.76L45.92-13.13 58.01-13.13 51.95-29.76ZM85.44-13.92L77.07-13.92 77.07 0 72.38 0 72.38-35.55 85.49-35.55Q91.33-35.55 94.64-32.57 97.94-29.59 97.94-24.68L97.94-24.68Q97.94-19.51 94.71-16.71 91.47-13.92 85.44-13.92L85.44-13.92ZM77.07-31.69L77.07-17.75 85.49-17.75Q89.25-17.75 91.25-19.52 93.26-21.29 93.26-24.63L93.26-24.63Q93.26-27.81 91.25-29.71 89.25-31.62 85.76-31.69L85.76-31.69 77.07-31.69ZM116.98-13.92L108.61-13.92 108.61 0 103.92 0 103.92-35.55 117.03-35.55Q122.87-35.55 126.18-32.57 129.48-29.59 129.48-24.68L129.48-24.68Q129.48-19.51 126.25-16.71 123.01-13.92 116.98-13.92L116.98-13.92ZM108.61-31.69L108.61-17.75 117.03-17.75Q120.79-17.75 122.8-19.52 124.8-21.29 124.8-24.63L124.8-24.63Q124.8-27.81 122.8-29.71 120.79-31.62 117.3-31.69L117.3-31.69 108.61-31.69ZM137.07-35.55L146.3-17.7 155.58-35.55 160.9-35.55 148.65-13.26 148.65 0 143.96 0 143.96-13.26 131.7-35.55 137.07-35.55Z" fill="#ffffff" data-fill-palette-color="primary"></path><path d="M185.12-20.26L185.12-16.43 169.71-16.43 169.71-3.83 187.61-3.83 187.61 0 165.03 0 165.03-35.55 187.36-35.55 187.36-31.69 169.71-31.69 169.71-20.26 185.12-20.26ZM220.76-35.55L220.76 0 216.05 0 198.15-27.39 198.15 0 193.44 0 193.44-35.55 198.15-35.55 216.1-8.03 216.1-35.55 220.76-35.55ZM238.92 0L229.08 0 229.08-35.55 239.12-35.55Q243.76-35.55 247.32-33.5 250.89-31.45 252.83-27.66 254.77-23.88 254.79-18.97L254.79-18.97 254.79-16.7Q254.79-11.67 252.85-7.89 250.91-4.1 247.31-2.08 243.71-0.05 238.92 0L238.92 0ZM239.24-31.69L233.77-31.69 233.77-3.83 238.7-3.83Q244.12-3.83 247.14-7.2 250.15-10.57 250.15-16.8L250.15-16.8 250.15-18.87Q250.15-24.93 247.31-28.28 244.46-31.64 239.24-31.69L239.24-31.69ZM272.34-15.84L272.34-15.84Q266.31-17.58 263.57-20.1 260.82-22.63 260.82-26.34L260.82-26.34Q260.82-30.54 264.18-33.29 267.53-36.04 272.9-36.04L272.9-36.04Q276.57-36.04 279.43-34.62 282.3-33.2 283.88-30.71 285.45-28.22 285.45-25.27L285.45-25.27 280.74-25.27Q280.74-28.49 278.69-30.33 276.64-32.18 272.9-32.18L272.9-32.18Q269.44-32.18 267.5-30.65 265.56-29.13 265.56-26.42L265.56-26.42Q265.56-24.24 267.4-22.74 269.24-21.24 273.67-20 278.1-18.75 280.61-17.25 283.11-15.75 284.32-13.75 285.53-11.74 285.53-9.03L285.53-9.03Q285.53-4.71 282.16-2.11 278.79 0.49 273.15 0.49L273.15 0.49Q269.49 0.49 266.31-0.92 263.14-2.32 261.42-4.76 259.7-7.2 259.7-10.3L259.7-10.3 264.41-10.3Q264.41-7.08 266.79-5.21 269.17-3.34 273.15-3.34L273.15-3.34Q276.86-3.34 278.84-4.86 280.81-6.37 280.81-8.98 280.81-11.6 278.98-13.02 277.15-14.45 272.34-15.84Z" fill="#ffffff" data-fill-palette-color="primary"></path></g></svg></g></svg></g></svg></g></svg></g><g transform="matrix(1,0,0,1,166.4609647776155,0)"><svg viewBox="0 0 62.598070444768986 70.71312049809755" height="70.71312049809755" width="62.598070444768986"><g><svg xmlns="http://www.w3.org/2000/svg" xmlns:xlink="http://www.w3.org/1999/xlink" version="1.1" x="0" y="0" viewBox="6.890999794006348 1.1219940185546875 85.82400512695312 96.95000457763672" enable-background="new 0 0 100 100" xml:space="preserve" height="70.71312049809755" width="62.598070444768986" class="icon-icon-0" data-fill-palette-color="accent" id="icon-0"><g fill="#ffffff" data-fill-palette-color="accent"><path fill="#ffffff" d="M64.008 72.381c4.002-3.149 12.23-11.582 15.089-21.179-6.511-8.01-33.912-42.187-40.238-50.08C38.212 8.613 31.63 24.377 20.21 29.646c-5.247 2.56-10.477 4.156-12.467 4.721l39.077 47.32C51.235 80.263 59.958 75.56 64.008 72.381z" data-fill-palette-color="accent"></path><g fill="#ffffff" data-fill-palette-color="accent"><g fill="#ffffff" data-fill-palette-color="accent"><path fill="#ffffff" d="M90.405 75.352c-6.5 3.781-13.381 7.281-20.674 9.929-8.632 3.134-19.05 6.681-22.386 7.664v5.127l43.046-15.479L90.405 75.352z" data-fill-palette-color="accent"></path><polygon fill="#ffffff" points="6.891,35.865 6.891,50.088 45.703,97.945 45.736,82.902    " data-fill-palette-color="accent"></polygon></g><path fill="#ffffff" d="M88.717 70.42c-5.018 3.936-11.386 7.921-18.278 11.363-6.521 3.266-20.879 7.668-23.093 8.339v1.144c3.686-1.09 13.036-3.898 21.237-7.013 9.104-3.457 22.12-11.628 22.12-11.628L88.717 70.42z" data-fill-palette-color="accent"></path></g><path fill="#ffffff" d="M80.877 50.835l-0.114 0.403c-2.851 10.142-11.25 18.858-15.762 22.409-4.225 3.319-13.009 8.054-17.655 9.561v2.168c6.53-2.034 15.656-6.36 20.721-9.922 8.699-6.128 17.195-14.63 22.419-22.404l0.047 0.036C84.648 46.442 51.938 9.001 49.818 6.309c-0.719 1.357-1.368 2.265-2.422 2.887 10.832 13.508 28.598 35.647 33.217 41.314L80.877 50.835z" data-fill-palette-color="accent"></path><path fill="#ffffff" d="M87.321 59.925c0 0-11.588 12.1-18.328 16.846-5.696 4.008-14.5 7.942-21.647 10.168v1.498c0.692-0.212 1.838-0.566 3.268-1.021 5.266-1.677 14.41-4.722 19.106-7.072 9.305-4.648 17.623-10.274 22.834-15.386 0.054-0.053 0.106-0.106 0.161-0.16L87.321 59.925z" data-fill-palette-color="accent"></path></g></svg></g></svg></g><g></g></svg></g></svg><rect width="395.52" height="133.959713213587" fill="none" stroke="none" visibility="hidden"></rect></g></svg></g></svg>